<?xml version="1.0" standalone="no"?><!DOCTYPE svg PUBLIC "-//W3C//DTD SVG 1.1//EN" "http://www.w3.org/Graphics/SVG/1.1/DTD/svg11.dtd"><svg t="1720144959146" class="icon" viewBox="0 0 1264 1024" version="1.1" xmlns="http://www.w3.org/2000/svg" p-id="51480" xmlns:xlink="http://www.w3.org/1999/xlink"><path d="M391.529412 0C289.129412 0 192.752941 36.141176 120.470588 108.423529 54.211765 180.705882 6.023529 265.035294 6.023529 367.435294v578.258824c0 42.164706 18.070588 78.305882 60.235295 78.305882s66.258824-36.141176 66.258823-78.305882v-289.129412c96.376471 48.188235 150.588235 72.282353 234.917647 72.282353 102.4 0 192.752941-36.141176 265.035294-108.42353 72.282353-72.282353 108.423529-156.611765 108.42353-259.011764 0-102.4-36.141176-186.729412-102.4-259.011765C572.235294 36.141176 487.905882 0 391.529412 0zM542.117647 518.023529c-42.164706 42.164706-90.352941 66.258824-150.588235 66.258824s-114.447059-24.094118-156.611765-66.258824c-42.164706-42.164706-66.258824-90.352941-66.258823-150.588235s24.094118-114.447059 66.258823-156.611765c42.164706-42.164706 96.376471-66.258824 156.611765-66.258823s114.447059 24.094118 156.611764 66.258823c42.164706 42.164706 66.258824 96.376471 66.258824 156.611765-6.023529 60.235294-30.117647 108.423529-72.282353 150.588235zM1186.635294 873.411765c-54.211765 0-114.447059-24.094118-156.611765-66.258824-42.164706-42.164706-72.282353-96.376471-72.282353-156.611765V433.694118h156.611765c36.141176 0 72.282353-42.164706 72.282353-78.305883 0-42.164706-30.117647-78.305882-72.282353-78.305882h-156.611765V114.447059c0-6.023529 0-78.305882-78.305882-84.329412-42.164706 0-84.329412 30.117647-84.329412 72.282353V662.588235c0 102.4 48.188235 186.729412 120.470589 259.011765 60.235294 60.235294 138.541176 96.376471 222.870588 102.4h42.164706c42.164706 0 72.282353-30.117647 72.282353-72.282353 6.023529-42.164706-30.117647-78.305882-66.258824-78.305882z" p-id="51481"></path></svg>